<svg xmlns="http://www.w3.org/2000/svg">
    <symbol id="sun" aria-hidden="true" fill="none" viewBox="0 0 24 24">
        <path stroke="currentColor" stroke-linecap="round" stroke-linejoin="round" stroke-width="2"
            d="M12 5V3m0 18v-2M7.05 7.05 5.636 5.636m12.728 12.728L16.95 16.95M5 12H3m18 0h-2M7.05 16.95l-1.414 1.414M18.364 5.636 16.95 7.05M16 12a4 4 0 1 1-8 0 4 4 0 0 1 8 0Z" />
    </symbol>
    <symbol id="moon" aria-hidden="true" fill="none" viewBox="0 0 24 24">
        <path stroke="currentColor" stroke-linecap="round" stroke-linejoin="round" stroke-width="2"
            d="M12 21a9 9 0 0 1-.5-17.986V3c-.354.966-.5 1.911-.5 3a9 9 0 0 0 9 9c.239 0 .254.018.488 0A9.004 9.004 0 0 1 12 21Z" />
    </symbol>
    <symbol id="search" aria-hidden="true" fill="none" viewBox="0 0 24 24">
        <path stroke="currentColor" stroke-linecap="round" stroke-width="2"
            d="m21 21-3.5-3.5M17 10a7 7 0 1 1-14 0 7 7 0 0 1 14 0Z" />
    </symbol>
    <symbol id="close" aria-hidden="true" fill="none" viewBox="0 0 24 24">
        <path stroke="currentColor" stroke-linecap="round" stroke-linejoin="round" stroke-width="2"
            d="M6 18 17.94 6M18 18 6.06 6" />
    </symbol>
    <symbol id="star" aria-hidden="true" fill="none" viewBox="0 0 24 24">
        <path stroke="currentColor" stroke-width="2"
            d="M11.083 5.104c.35-.8 1.485-.8 1.834 0l1.752 4.022a1 1 0 0 0 .84.597l4.463.342c.9.069 1.255 1.2.556 1.771l-3.33 2.723a1 1 0 0 0-.337 1.016l1.03 4.119c.214.858-.71 1.552-1.474 1.106l-3.913-2.281a1 1 0 0 0-1.008 0L7.583 20.8c-.764.446-1.688-.248-1.474-1.106l1.03-4.119A1 1 0 0 0 6.8 14.56l-3.33-2.723c-.698-.571-.342-1.702.557-1.771l4.462-.342a1 1 0 0 0 .84-.597l1.753-4.022Z" />
    </symbol>
    <symbol id="star-filled" aria-hidden="true" fill="currentColor" viewBox="0 0 24 24">
        <path
            d="M13.849 4.22c-.684-1.626-3.014-1.626-3.698 0L8.397 8.387l-4.552.361c-1.775.14-2.495 2.331-1.142 3.477l3.468 2.937-1.06 4.392c-.413 1.713 1.472 3.067 2.992 2.149L12 19.35l3.897 2.354c1.52.918 3.405-.436 2.992-2.15l-1.06-4.39 3.468-2.938c1.353-1.146.633-3.336-1.142-3.477l-4.552-.36-1.754-4.17Z" />
    </symbol>
</svg>